<svg id="Layer_1" data-name="Layer 1" xmlns="http://www.w3.org/2000/svg" viewBox="0 0 16 16"><defs><style>.cls-1{fill:#ff79c6;}.cls-2{fill:#282a36;}</style></defs><path class="cls-1" d="M13.82,4.82l-.15-.26.12-.07L8,1.15,2.21,4.49l.12.07-.15.26-.12-.07v6.69l5.78,3.34v-.14h.32v.14l5.78-3.34V4.75Zm-11.1.31L2.46,5l.15-.26.26.15Zm.52.3L3,5.27,3.13,5l.26.16Zm.53.31L3.5,5.58l.15-.26.26.16Zm.52.31L4,5.9l.16-.26.26.15Zm.54.3-.26-.16.14-.26L5,6.09Zm.52.31L5.09,6.5l.16-.26.26.16ZM5.87,7,5.61,6.8l.16-.26L6,6.69Zm.54.31-.26-.15.15-.26L6.56,7Zm.52.32-.26-.16.15-.26.26.16Zm.53.29L7.2,7.71l.16-.26.26.16Zm.7,6.46H7.84V14h.32Zm0-.6H7.84v-.32h.32Zm0-.61H7.84v-.31h.32Zm0-.61H7.84V12.2h.32Zm0-.62H7.84v-.31h.32Zm0-.61H7.84V11h.32Zm0-.6H7.84v-.32h.32Zm0-.61H7.84V9.76h.32Zm0-.61H7.84V9.15h.32Zm0-.62H7.84V8.53h.32Zm0-.74v.13H7.84V8.1L7.72,8l.16-.26L8,7.84l.12-.07L8.28,8Zm.38-.23-.16-.26.26-.16.16.26Zm.53-.29-.15-.26.26-.16.15.26Zm.52-.32L9.44,7l.26-.15.15.26ZM10.13,7,10,6.69l.25-.15.16.26Zm.52-.29-.16-.26.26-.16.16.26Zm.52-.31L11,6.09l.28-.16.16.26Zm.54-.3-.16-.26.26-.15L12,5.9Zm.52-.31-.16-.26.26-.16.17.26Zm.53-.31-.15-.26L12.87,5l.15.26Zm.52-.3-.15-.26.26-.15.15.26Z"/><path class="cls-2" d="M8,.4,1.42,4.2v7.6L8,15.6l6.58-3.8V4.2Zm6.24,11.21L8,15.22,1.76,11.61V4.41L8,.8l6.24,3.61Z"/></svg>